<svg id="visual" viewBox="0 0 900 600" width="900" height="600" xmlns="http://www.w3.org/2000/svg" xmlns:xlink="http://www.w3.org/1999/xlink" version="1.1"><rect x="0" y="0" width="900" height="600" fill="#e3e0e8"></rect><defs><linearGradient id="grad1_0" x1="33.3%" y1="0%" x2="100%" y2="100%"><stop offset="20%" stop-color="#e3e0e8" stop-opacity="1"></stop><stop offset="80%" stop-color="#e3e0e8" stop-opacity="1"></stop></linearGradient></defs><defs><linearGradient id="grad2_0" x1="0%" y1="0%" x2="66.7%" y2="100%"><stop offset="20%" stop-color="#e3e0e8" stop-opacity="1"></stop><stop offset="80%" stop-color="#e3e0e8" stop-opacity="1"></stop></linearGradient></defs><g transform="translate(900, 0)"><path d="M0 486.7C-52.4 445.8 -104.7 404.8 -156.9 378.8C-209.1 352.8 -261 341.8 -314 314C-366.9 286.1 -420.7 241.4 -449.7 186.3C-478.7 131.1 -482.7 65.6 -486.7 0L0 0Z" fill="#f6ecec"></path></g><g transform="translate(0, 600)"><path d="M0 -486.7C68.4 -483.6 136.9 -480.4 185.6 -448.1C234.3 -415.7 263.3 -354.2 309 -309C354.7 -263.8 417.3 -235 449.7 -186.3C482.1 -137.5 484.4 -68.7 486.7 0L0 0Z" fill="#f6ecec"></path></g></svg>